# xmcd
#
# Track frame offsets:
#	150
#	17890
#	35110
#	61687
#	81087
#	95829
#	119725
#	139765
#	156502
#	175780
#	200392
#	216885
#	227482
#
# Disc length: 3294 seconds
#
# Revision: 0
# Processed by: cddbd v1.5.1PL2 Copyright (c) Steve Scherf et al.
# Submitted via: dBpowerAMP V4.0
#
DISCID=b80cdc0d
DTITLE=Rebecca Folsom - Welcome Home
DYEAR=1997
DGENRE=Blues
TTITLE0=From the Same Fire
TTITLE1=Pretty Song
TTITLE2=Welcome Home
TTITLE3=Rose in the Water
TTITLE4=In the Sea
TTITLE5=Be Your Angel
TTITLE6=Middle of Nowhere
TTITLE7=Will of a Woman
TTITLE8=Don't You Worry
TTITLE9=Every Junkie
TTITLE10=You Should Know
TTITLE11=Woman's Truth
TTITLE12=Precious Moments
EXTD=
EXTT0=
EXTT1=
EXTT2=
EXTT3=
EXTT4=
EXTT5=
EXTT6=
EXTT7=
EXTT8=
EXTT9=
EXTT10=
EXTT11=
EXTT12=
PLAYORDER=
